<svg xmlns="http://www.w3.org/2000/svg" viewBox="0 0 128 128" role="img" aria-labelledby="title desc">
  <title id="title">CGAT</title>
  <desc id="desc">Interlocking genome assembly paths</desc>
  <defs>
    <linearGradient id="g" x1="16" y1="16" x2="112" y2="112" gradientUnits="userSpaceOnUse">
      <stop stop-color="#0f766e"/>
      <stop offset="1" stop-color="#2563eb"/>
    </linearGradient>
  </defs>
  <rect x="8" y="8" width="112" height="112" rx="28" fill="url(#g)"/>
  <path d="M36 35h20c12 0 16 8 16 18s-4 18-16 18H44c-8 0-12 5-12 12s4 12 12 12h20" fill="none" stroke="#fff" stroke-width="10" stroke-linecap="round"/>
  <path d="M92 33H76c-12 0-16 8-16 18s4 18 16 18h8c8 0 12 5 12 12s-4 12-12 12H68" fill="none" stroke="#ccfbf1" stroke-width="10" stroke-linecap="round"/>
  <circle cx="60" cy="51" r="5" fill="#f8fafc"/>
  <circle cx="72" cy="69" r="5" fill="#f8fafc"/>
</svg>
